<svg xmlns="http://www.w3.org/2000/svg" xmlns:xlink="http://www.w3.org/1999/xlink" viewBox="0 0 1366 603" width="1366" height="603"><defs><style>.cls-1{fill:none;}.cls-2{clip-path:url(#clip-path);}.cls-3{fill:url(#linear-gradient);}.cls-4{opacity:0.06;}.cls-5{fill:#fff;}</style><clipPath id="clip-path"><rect class="cls-1" x="-13.5" y="-11" width="1389" height="624"/></clipPath><linearGradient id="linear-gradient" x1="684" y1="609" x2="684" y2="-11" gradientUnits="userSpaceOnUse"><stop offset="0" stop-color="#0071bc"/><stop offset="0.02" stop-color="#016db6"/><stop offset="0.12" stop-color="#065a97"/><stop offset="0.24" stop-color="#0a4a7d"/><stop offset="0.36" stop-color="#0d3d69"/><stop offset="0.51" stop-color="#0f355c"/><stop offset="0.69" stop-color="#113053"/><stop offset="1" stop-color="#112e51"/></linearGradient></defs><title>PubMed HP Hero Image</title><g id="Layer_3" data-name="Layer 3"><g class="cls-2"><rect class="cls-3" x="-7.5" y="-11" width="1383" height="620"/><g class="cls-4"><path class="cls-5" d="M1659.93,235a15.8,15.8,0,1,0,16.85-14.71,15.41,15.41,0,0,0-5.93.76l-25.78-67.74a22,22,0,0,0,13.34-18.7,21.69,21.69,0,0,0-.64-6.83l-.45-1.53A21.89,21.89,0,0,0,1644,112.51l-1.51-.49a22.61,22.61,0,0,0-4.45-.81,21.91,21.91,0,0,0-18,7.52l-27.27-22.09a14.36,14.36,0,0,0,2.81-7.71,15,15,0,1,0-3.81,9l27.27,22a22.24,22.24,0,0,0-4.37,11.67,21.71,21.71,0,0,0,7.55,18l-79.93,99.08a25.44,25.44,0,0,0-13.54-5.05,21.67,21.67,0,0,0-2.79,0l-3.6-49.08a14.46,14.46,0,1,0-2.8.07c.39,0,.81,0,1.21,0l3.65,49.07a25.35,25.35,0,0,0-15,7L1403.17,147.89a26.2,26.2,0,0,0-.26-35.57l77.92-74.24a16.89,16.89,0,0,0,10.68,4.67,17.09,17.09,0,0,0,8.42-32.54l35.33-80.07a6.83,6.83,0,0,0,2,.46,7.16,7.16,0,0,0,7.66-6.66,7.18,7.18,0,0,0-6.68-7.63,7.18,7.18,0,0,0-7.65,6.66,7.19,7.19,0,0,0,3.91,6.86l-35.32,80a17.51,17.51,0,0,0-5.37-1.26,17.1,17.1,0,0,0-14.09,28.3l-77.92,74.27a26.33,26.33,0,0,0-15.84-7.06L1396.41-44.7a17.56,17.56,0,0,0,18-16.36,17.58,17.58,0,0,0-16.34-18.73,17.57,17.57,0,0,0-15.56,7.44L1351-93.48a7.32,7.32,0,0,0,1.07-3.38,7.66,7.66,0,0,0-7.11-8.19,7.76,7.76,0,0,0-8.21,7.14,7.73,7.73,0,0,0,7.15,8.18,7.61,7.61,0,0,0,6.66-3.08L1382-71.71a17.61,17.61,0,0,0-2.73,8.25,17.58,17.58,0,0,0,15.51,18.64L1384.43,104a26.32,26.32,0,0,0-18.55,7l-11.4-11.89a7.59,7.59,0,0,0-5.08-12.86,7.68,7.68,0,1,0,4.54,13.44l11.41,11.87a26,26,0,0,0-7.58,15.2L1212.91,117A28.53,28.53,0,0,0,1198.66,92l19.19-35.2a20.85,20.85,0,0,0,24.71-32.69l40.55-38.34a7.4,7.4,0,0,0,4.52,2,7.32,7.32,0,0,0,7.81-6.81,7.31,7.31,0,0,0-6.8-7.83,7.39,7.39,0,0,0-7.83,6.83,7.45,7.45,0,0,0,1.74,5.27L1242,23.58a20.76,20.76,0,0,0-29.68,0L1187.43.08a7.21,7.21,0,0,0,1.67-4,7.06,7.06,0,0,0-6.56-7.51A7.1,7.1,0,0,0,1175-4.93a7,7,0,0,0,6.58,7.51,7,7,0,0,0,5.32-1.94l24.86,23.53a20.8,20.8,0,0,0,4.72,31.91l-19.18,35.18a28.72,28.72,0,0,0-10.86-3,28.44,28.44,0,0,0-25.76,12.85l-108.94-65a15.15,15.15,0,0,0,1.85-6.35,15.82,15.82,0,1,0-2.62,7.7l108.89,65a27.91,27.91,0,0,0-3.76,12.27,28.36,28.36,0,0,0,5,18.09L931.59,309.37a25.31,25.31,0,0,0-11.17-7.58l13.46-44.25a16.85,16.85,0,0,0,3.47.55A19,19,0,0,0,948.81,223l39.46-65.63a7.08,7.08,0,0,0,3,.87,7.44,7.44,0,1,0-3.65-1.27l-39.47,65.65a19.17,19.17,0,0,0-8.15-2.48,19,19,0,0,0-13.83,4.64l-28.57-31.43a9.91,9.91,0,1,0-7.65,2.83,9.75,9.75,0,0,0,7.07-2.29l28.58,31.43a19,19,0,0,0,6.78,31.78L918.9,301.32a24.15,24.15,0,0,0-4.76-.79,25,25,0,0,0-18.07,6l-1.13,1.08a24.85,24.85,0,0,0-5.44,28l-36.83,18a15.88,15.88,0,1,0,1.94,8.72,15.52,15.52,0,0,0-1.24-7.31l36.81-17.94a25.16,25.16,0,0,0,20.57,13.5,25.48,25.48,0,0,0,10-1.37l1.47-.61a25.11,25.11,0,0,0,13.69-14.3l17.95,6.2a8.1,8.1,0,0,0-.25,1.42,8.57,8.57,0,1,0,9.1-7.94,8.49,8.49,0,0,0-8.33,5l-18-6.23a22.81,22.81,0,0,0,1-5.53,24.9,24.9,0,0,0-4.87-16.62L1162,134.15a28.66,28.66,0,0,0,10.63,8.41l-37.29,89a13.33,13.33,0,0,0-2.77-.56,11.08,11.08,0,1,0,4.25,1.17l37.25-89a30.1,30.1,0,0,0,8.43,1.9,28.33,28.33,0,0,0,12.94-2.21l57.66,129.45a17.7,17.7,0,0,0-2.79,29.93l.66.45a17.71,17.71,0,1,0,11.27-32.24,17.11,17.11,0,0,0-7.68,1.18l-57.67-129.41a28.38,28.38,0,0,0,16-23.64s0,0,0-.07l144.69,9.82s0,.05,0,.1a26.34,26.34,0,0,0,12.68,24.27L1349,192.47a18.42,18.42,0,1,0,1.38.76l21.32-39.7a26.13,26.13,0,0,0,30.42-4.53l106.21,102.88a25.28,25.28,0,0,0,1,35.08l-35.8,38.78a13,13,0,1,0,1.17,1.09l35.78-38.76a25.27,25.27,0,0,0,33.33-.15l50.47,53.89a13.92,13.92,0,1,0,1.16-1.09l-50.49-53.85a25.35,25.35,0,0,0,7.17-14.39l12.5,1.62s0,0,0,.08a8,8,0,1,0,.14-.86l-12.55-1.61c.06-.34.12-.72.15-1.07a25.32,25.32,0,0,0-8.78-20.93l79.89-99.09a22,22,0,0,0,20.19,3.23l25.73,67.73A15.75,15.75,0,0,0,1659.93,235Z"/><path class="cls-5" d="M665.75,255.28a10.91,10.91,0,0,0-8.49-1.92l-7.17-32.21a16.37,16.37,0,0,0,9.31-6.24,16.54,16.54,0,0,0-.08-19.71l70-58A32.07,32.07,0,0,0,759,147.85l1.54-.32a32,32,0,0,0,16.21-9l12.67,11.67c-.1.15-.24.29-.32.42a11.9,11.9,0,1,0,1.39-1.59l-12.62-11.68c.6-.67,1.19-1.38,1.74-2.09a32.32,32.32,0,0,0,6.21-20.67l100.58-7.2a18.42,18.42,0,1,0-.11-1.55L785.62,113A32.14,32.14,0,0,0,772.68,90.2,31.05,31.05,0,0,0,765,86.07L788.61,19a24.12,24.12,0,0,0,26.77-8.69,24.19,24.19,0,0,0-5.17-33.86,24.19,24.19,0,0,0-33.84,5.12A24.21,24.21,0,0,0,781.5,15.4a25.22,25.22,0,0,0,5.57,3.07L763.55,85.52a32.1,32.1,0,0,0-16.23-.84l-1.56.35a32.12,32.12,0,0,0-22.62,20.66l-.42,1.52A32.39,32.39,0,0,0,728.31,136l-70,58a17.35,17.35,0,0,0-2.4-2.19,16.59,16.59,0,0,0-23.13,3.54,20.53,20.53,0,0,0-1.12,1.84l-14.38-7.44a8,8,0,0,0-13.8-8.08,8,8,0,0,0,13,9.52,3.91,3.91,0,0,0,.4-.75l14.43,7.45a16.54,16.54,0,0,0,5.06,20.56,16.23,16.23,0,0,0,13,2.85l7.22,32.23a10.76,10.76,0,0,0-6,4.11,10.94,10.94,0,1,0,15.3-2.34Z"/><path class="cls-5" d="M614.44,115.8a9.89,9.89,0,0,0-9.18-10.59,9.76,9.76,0,0,0-7.07,2.31L569.61,76.06a19,19,0,0,0-6.77-31.76L576.3.05a25.89,25.89,0,0,0,4.75.8,24.91,24.91,0,0,0,18.06-6l1.14-1.07a25.1,25.1,0,0,0,7.53-16.24,25.21,25.21,0,0,0-2.09-11.77l36.83-18A15.8,15.8,0,0,0,655.34-44a15.89,15.89,0,0,0,16.95-14.78A15.89,15.89,0,0,0,657.5-75.74a15.92,15.92,0,0,0-16.93,14.81,15.2,15.2,0,0,0,1.24,7.29L605-35.69a25.1,25.1,0,0,0-20.52-13.5,25.66,25.66,0,0,0-10.06,1.36l-1.47.61A25.07,25.07,0,0,0,559.26-32.9l-18-6.2a9.83,9.83,0,0,0,.24-1.44,8.6,8.6,0,0,0-8-9.13,8.58,8.58,0,0,0-9.11,8,8.54,8.54,0,0,0,8,9.13,8.47,8.47,0,0,0,8.32-5l18,6.21a25.16,25.16,0,0,0-1,5.55,25,25,0,0,0,4.88,16.64L333.15,167.23a28.67,28.67,0,0,0-10.63-8.42l37.29-89a13.16,13.16,0,0,0,2.78.56,11,11,0,1,0-4.26-1.16l-37.26,89a28.76,28.76,0,0,0-8.44-1.91,28,28,0,0,0-12.93,2.22L242,29a17.48,17.48,0,0,0,9.74-14.6A17.74,17.74,0,0,0,244.83-.93l-.64-.44a17.9,17.9,0,0,0-8.85-3.1,17.71,17.71,0,0,0-2.45,35.33,16.6,16.6,0,0,0,7.69-1.18l57.67,129.43a28.35,28.35,0,0,0-15.94,23.63c-.06,0,0,.06,0,.07L137.62,173s0,0,0-.1a26.23,26.23,0,0,0-12.7-24.25l21.3-39.73A18.09,18.09,0,1,0,136,91.36a18,18,0,0,0,8.81,16.78l-21.29,39.7a26.15,26.15,0,0,0-30.46,4.53L-13.06,49.48A25.08,25.08,0,0,0-6.58,34.15,25,25,0,0,0-14.11,14.4L21.7-24.38a12.68,12.68,0,0,0,7.21,2.86,12.79,12.79,0,0,0,13.68-11.9A12.83,12.83,0,0,0,30.67-47.09,12.83,12.83,0,0,0,17-35.17a12.73,12.73,0,0,0,3.54,9.71L-15.25,13.31A25.63,25.63,0,0,0-30.12,7.15a25.45,25.45,0,0,0-18.46,6.29L-99.06-40.45a14.13,14.13,0,0,0,3.83-8.7,14,14,0,0,0-13-14.94,14,14,0,0,0-15,13,14,14,0,0,0,13,14.93,14.08,14.08,0,0,0,9.94-3.22l50.5,53.87a25.65,25.65,0,0,0-7.2,14.36l-12.46-1.59s0-.05,0-.09A7.73,7.73,0,0,0-76.52,19a7.67,7.67,0,0,0-8.15,7.15,7.65,7.65,0,0,0,7.11,8.17,7.65,7.65,0,0,0,8-6.32L-57,29.66c0,.36-.11.72-.15,1.08a25.42,25.42,0,0,0,8.8,20.93l-79.89,99.09a21.81,21.81,0,0,0-11.63-4.33,21.85,21.85,0,0,0-8.55,1.09l-25.75-67.73a15.76,15.76,0,0,0,9.42-13.39,15.79,15.79,0,0,0-14.71-16.83,15.76,15.76,0,0,0-16.84,14.7A15.8,15.8,0,0,0-181.6,81.12a15.54,15.54,0,0,0,5.95-.76l25.76,67.73a22.05,22.05,0,0,0-13.33,18.71,21.09,21.09,0,0,0,.63,6.82l.45,1.54a21.91,21.91,0,0,0,13.36,13.71l1.51.48a24.17,24.17,0,0,0,4.45.81,21.86,21.86,0,0,0,17.95-7.51l27.28,22.07a14.93,14.93,0,0,0-2.83,7.73,14.94,14.94,0,0,0,13.87,15.89,15,15,0,0,0,15.93-13.89,15,15,0,0,0-13.93-15.88,14.82,14.82,0,0,0-12,4.91l-27.26-22a21.81,21.81,0,0,0,4.33-11.66,21.72,21.72,0,0,0-7.52-18l79.92-99.09a25.28,25.28,0,0,0,13.56,5.07,17.1,17.1,0,0,0,2.77,0l3.6,49.1a14.4,14.4,0,0,0-12.54,13.32,14.4,14.4,0,0,0,13.41,15.34A14.35,14.35,0,0,0-11,122.11a14.38,14.38,0,0,0-13.39-15.35c-.42,0-.83,0-1.22,0l-3.63-49.09a25.2,25.2,0,0,0,15-7L92,153.48a26.18,26.18,0,0,0,.25,35.57l-77.9,74.26a16.92,16.92,0,0,0-10.68-4.68,17.1,17.1,0,0,0-8.43,32.54l-35.33,80.08a6.77,6.77,0,0,0-2-.48,7.2,7.2,0,0,0-7.66,6.66,7.17,7.17,0,0,0,6.67,7.63,7.2,7.2,0,0,0,7.66-6.66,7.16,7.16,0,0,0-3.91-6.85L-4,291.5a18.15,18.15,0,0,0,5.39,1.27,17.12,17.12,0,0,0,18.25-15.89,17,17,0,0,0-4.17-12.42l77.94-74.28a26.17,26.17,0,0,0,15.81,7.07L98.78,346.06a17.58,17.58,0,1,0,13.91,27.66l31.54,21.12a7.3,7.3,0,0,0-1.08,3.41,7.75,7.75,0,1,0,1.52-4.06l-31.5-21.1a17.55,17.55,0,0,0-12.81-26.89l10.39-148.85a26.42,26.42,0,0,0,18.56-7l11.4,11.89a7.85,7.85,0,0,0-2.13,4.7,7.74,7.74,0,0,0,7.18,8.16,7.68,7.68,0,0,0,1-15.33,7.57,7.57,0,0,0-5.52,1.9l-11.41-11.86a26,26,0,0,0,7.55-15.22l144.86,9.86a28.49,28.49,0,0,0,14.25,24.9l-19.2,35.21a20.83,20.83,0,0,0-24.67,32.69l-40.58,38.35a7,7,0,1,0,.56.56l40.56-38.34a20.78,20.78,0,0,0,29.69,0l24.87,23.51a7,7,0,1,0,.55-.59l-24.87-23.49a20.76,20.76,0,0,0-4.74-31.92l19.22-35.2a28.47,28.47,0,0,0,36.62-9.89l108.92,65a14.88,14.88,0,0,0-1.83,6.36,15.76,15.76,0,1,0,2.6-7.71l-108.88-65a28.34,28.34,0,0,0-1.25-30.34L563.59-8A25.12,25.12,0,0,0,574.77-.42L561.3,43.83a17.88,17.88,0,0,0-3.49-.56,19,19,0,0,0-11.42,35.12L506.9,144a6.77,6.77,0,0,0-2.95-.87,7.47,7.47,0,1,0,3.65,1.29L547.05,78.8a19.5,19.5,0,0,0,8.17,2.48A19,19,0,0,0,569,76.61l28.58,31.44a9.91,9.91,0,1,0,16.82,7.75Z"/></g><g class="cls-4"><path class="cls-5" d="M-183.75,443.39a15.8,15.8,0,0,0-14.72-16.84,15.74,15.74,0,0,0-16.82,14.7,15.77,15.77,0,0,0,14.68,16.85,15.6,15.6,0,0,0,5.93-.75l25.79,67.73a22,22,0,0,0-13.34,18.7,21.41,21.41,0,0,0,.63,6.83l.45,1.53a21.89,21.89,0,0,0,13.35,13.71l1.52.5a23.12,23.12,0,0,0,4.44.8,21.93,21.93,0,0,0,18-7.51l27.26,22.08a14.39,14.39,0,0,0-2.81,7.71,14.94,14.94,0,0,0,13.85,15.9,14.94,14.94,0,0,0,15.92-13.89,15,15,0,0,0-13.92-15.87,14.78,14.78,0,0,0-12,4.9l-27.27-22a22.26,22.26,0,0,0,4.36-11.68,21.71,21.71,0,0,0-7.55-18l79.93-99.08a25.47,25.47,0,0,0,13.55,5.05,21.51,21.51,0,0,0,2.78,0l3.6,49.08a14.46,14.46,0,0,0-12.55,13.33,14.43,14.43,0,0,0,13.43,15.36A14.36,14.36,0,0,0-30,499.11a14.37,14.37,0,0,0-13.38-15.35c-.4,0-.82,0-1.22,0l-3.64-49.07a25.35,25.35,0,0,0,15-7L73,530.47A26.2,26.2,0,0,0,73.26,566L-4.65,640.29a17,17,0,0,0-10.68-4.68,17.11,17.11,0,0,0-18.25,15.9,17.1,17.1,0,0,0,9.83,16.64l-35.34,80.07a7.08,7.08,0,0,0-2-.46,7.18,7.18,0,0,0-7.66,6.66,7.19,7.19,0,0,0,6.68,7.64,7.19,7.19,0,0,0,7.65-6.67,7.19,7.19,0,0,0-3.9-6.85l35.31-80a17.5,17.5,0,0,0,5.38,1.26A17.09,17.09,0,0,0,.6,653.86a17.11,17.11,0,0,0-4.17-12.41l77.93-74.27a26.4,26.4,0,0,0,15.83,7.07L79.77,723.06a17.57,17.57,0,1,0,13.91,27.66l31.53,21.13a7.15,7.15,0,0,0-1.06,3.37,7.64,7.64,0,0,0,7.1,8.19,7.68,7.68,0,1,0,1.06-15.32,7.63,7.63,0,0,0-6.66,3.08L94.14,750.08a17.55,17.55,0,0,0-12.78-26.9L91.75,574.33a26.31,26.31,0,0,0,18.54-7l11.4,11.89a7.61,7.61,0,0,0,5.09,12.87,7.68,7.68,0,0,0,1-15.33,7.57,7.57,0,0,0-5.54,1.89l-11.41-11.88a25.88,25.88,0,0,0,7.57-15.2l144.86,9.85a28.54,28.54,0,0,0,14.25,24.92l-19.19,35.21a20.84,20.84,0,0,0-24.71,32.68l-40.54,38.35a7.4,7.4,0,0,0-4.53-2,7.33,7.33,0,1,0,6.82,7.8,7.4,7.4,0,0,0-1.73-5.26l40.55-38.33a20.74,20.74,0,0,0,29.68,0l24.89,23.48a7.22,7.22,0,0,0-1.68,4,7.14,7.14,0,1,0,2.21-4.6L264.43,654.2a20.8,20.8,0,0,0-4.73-31.92l19.18-35.18a28.77,28.77,0,0,0,10.87,2.95,28.42,28.42,0,0,0,25.76-12.85l108.93,65a15.15,15.15,0,0,0-1.85,6.35,15.84,15.84,0,1,0,2.63-7.7l-108.9-65a27.91,27.91,0,0,0,3.76-12.27,28.32,28.32,0,0,0-5-18.08L544.58,369a25.47,25.47,0,0,0,11.17,7.59l-13.46,44.25a16.86,16.86,0,0,0-3.47-.56,19.05,19.05,0,0,0-11.46,35.13L487.9,521a7.14,7.14,0,0,0-3-.87,7.46,7.46,0,1,0,3.65,1.28l39.48-65.65a19.06,19.06,0,0,0,22-2.17L578.6,485a9.91,9.91,0,1,0,7.65-2.83,9.75,9.75,0,0,0-7.07,2.29L550.6,453.07a19,19,0,0,0-6.78-31.78L557.28,377a24,24,0,0,0,4.75.79,25,25,0,0,0,18.07-6l1.13-1.07a24.86,24.86,0,0,0,5.44-28l36.83-18a15.88,15.88,0,1,0-1.94-8.72,15.59,15.59,0,0,0,1.24,7.32L586,341.3a25.15,25.15,0,0,0-20.56-13.5,25.62,25.62,0,0,0-10,1.38l-1.48.61a25.07,25.07,0,0,0-13.68,14.29l-18-6.19a7.5,7.5,0,0,0,.25-1.43,8.57,8.57,0,1,0-9.09,7.94,8.49,8.49,0,0,0,8.33-5l18,6.23a23.4,23.4,0,0,0-1,5.53,24.94,24.94,0,0,0,4.88,16.63L314.13,544.21a28.66,28.66,0,0,0-10.63-8.41l37.29-89a12.71,12.71,0,0,0,2.77.56,11.07,11.07,0,1,0-4.25-1.17l-37.25,89a29.74,29.74,0,0,0-8.43-1.89,28.2,28.2,0,0,0-12.94,2.2L223,406a17.49,17.49,0,0,0,9.73-14.6,17.69,17.69,0,0,0-7-15.33l-.65-.45a17.93,17.93,0,0,0-8.85-3.1,17.71,17.71,0,1,0-2.42,35.34,17,17,0,0,0,7.67-1.18L279.24,536.1a28.37,28.37,0,0,0-15.95,23.64s0,0,0,.06L118.61,550s0-.05,0-.1A26.35,26.35,0,0,0,106,525.61l21.28-39.72a17.7,17.7,0,0,0,6.64,1.76,18.15,18.15,0,1,0-8-2.52l-21.32,39.7a25.76,25.76,0,0,0-10.34-2.9,26,26,0,0,0-20.08,7.43L-32.1,426.48a25.12,25.12,0,0,0,6.53-15.32,25.18,25.18,0,0,0-7.55-19.76l35.8-38.77a13,13,0,1,0-1.17-1.09l-35.77,38.75a25.51,25.51,0,0,0-14.86-6.14,25.27,25.27,0,0,0-18.47,6.3l-50.47-53.9a14.12,14.12,0,0,0,3.82-8.71,14,14,0,0,0-13-14.94,14,14,0,0,0-15,13,14,14,0,0,0,13,14.94,14,14,0,0,0,10-3.21l50.49,53.85a25.37,25.37,0,0,0-7.16,14.39l-12.51-1.61s0-.06,0-.09A7.67,7.67,0,0,0-95.52,396a7.65,7.65,0,0,0-8.16,7.15,7.6,7.6,0,0,0,7.1,8.14,7.62,7.62,0,0,0,8-6.28L-76,406.65c-.06.34-.12.72-.15,1.07a25.34,25.34,0,0,0,8.78,20.93l-79.88,99.09a22.08,22.08,0,0,0-11.64-4.32,22.28,22.28,0,0,0-8.55,1.09l-25.74-67.73A15.78,15.78,0,0,0-183.75,443.39Z"/><path class="cls-5" d="M810.42,423.08a10.88,10.88,0,0,0,8.49,1.92l7.18,32.21a16.35,16.35,0,0,0-9.31,6.24,16.54,16.54,0,0,0,.07,19.71l-70,58a32.07,32.07,0,0,0-29.62-10.63l-1.55.32a32.09,32.09,0,0,0-16.21,9l-12.66-11.67c.09-.16.23-.3.31-.43a11.9,11.9,0,1,0-1.39,1.59L698.36,541c-.61.67-1.19,1.38-1.75,2.09a32.34,32.34,0,0,0-6.2,20.67L589.82,571a18.42,18.42,0,1,0,.11,1.55l100.62-7.16a32.15,32.15,0,0,0,12.94,22.77,31.05,31.05,0,0,0,7.68,4.13l-23.61,67.1a24.11,24.11,0,1,0,7.12,3.57,25.06,25.06,0,0,0-5.58-3.06l23.53-67.06a32.06,32.06,0,0,0,16.22.84l1.57-.35A32,32,0,0,0,753,572.67l.42-1.52a32.42,32.42,0,0,0-5.58-28.79l70-58a17.38,17.38,0,0,0,2.41,2.19A16.58,16.58,0,0,0,843.4,483a19.52,19.52,0,0,0,1.12-1.83l14.38,7.43a8,8,0,0,0,13.8,8.08,8,8,0,0,0-13-9.52,5.53,5.53,0,0,0-.4.75l-14.42-7.45a16.53,16.53,0,0,0-5.06-20.55,16.19,16.19,0,0,0-13-2.85l-7.23-32.24a10.8,10.8,0,0,0,6.05-4.1,10.95,10.95,0,1,0-15.3,2.33Z"/><path class="cls-5" d="M861.73,562.57a9.89,9.89,0,0,0,9.19,10.58,9.74,9.74,0,0,0,7.06-2.31l28.59,31.46a19,19,0,0,0,6.76,31.76l-13.45,44.26a25.31,25.31,0,0,0-4.76-.81,24.93,24.93,0,0,0-18,6l-1.15,1.07a24.88,24.88,0,0,0-5.43,28l-36.84,18a15.87,15.87,0,1,0,2,8.71,15.33,15.33,0,0,0-1.23-7.3l36.81-18a25.09,25.09,0,0,0,20.53,13.5,25.63,25.63,0,0,0,10-1.36l1.48-.61a25,25,0,0,0,13.67-14.32l18,6.21a8.32,8.32,0,0,0-.23,1.44,8.56,8.56,0,1,0,9.1-7.95,8.46,8.46,0,0,0-8.33,5l-18-6.21a25.1,25.1,0,0,0-3.86-22.18L1143,511.13a28.52,28.52,0,0,0,10.64,8.42l-37.3,89a13.07,13.07,0,0,0-2.77-.56,11.07,11.07,0,1,0,4.26,1.17l37.25-89a28.83,28.83,0,0,0,8.44,1.9,28,28,0,0,0,12.93-2.21l57.66,129.46a17.5,17.5,0,0,0-9.74,14.6,17.74,17.74,0,0,0,7,15.35l.64.43a17.71,17.71,0,1,0,11.29-32.23,16.73,16.73,0,0,0-7.69,1.18l-57.67-129.43a28.36,28.36,0,0,0,15.95-23.63c.05,0,0-.05,0-.07l144.7,9.83s0,.05,0,.11a26.2,26.2,0,0,0,12.7,24.24l-21.31,39.73a18.42,18.42,0,1,0,1.38.76l21.3-39.69a26.48,26.48,0,0,0,10.37,2.91,26.12,26.12,0,0,0,20.08-7.45l106.17,102.89a25.35,25.35,0,0,0,1,35.08l-35.81,38.78a12.81,12.81,0,0,0-20.89,9,12.83,12.83,0,1,0,22.06-8l35.78-38.77a25.25,25.25,0,0,0,33.34-.13l50.48,53.89a13.95,13.95,0,1,0,1.16-1.09l-50.5-53.86a25.68,25.68,0,0,0,7.2-14.37l12.46,1.6s0,0,0,.08a8.18,8.18,0,1,0,.15-.84l-12.52-1.63c0-.35.1-.72.14-1.08a25.42,25.42,0,0,0-8.79-20.93l79.89-99.09a22,22,0,0,0,20.17,3.24l25.76,67.73a15.77,15.77,0,1,0,7.43-1.32,15.46,15.46,0,0,0-5.94.75l-25.77-67.73a22,22,0,0,0,13.33-18.71,20.82,20.82,0,0,0-.63-6.82l-.45-1.53A21.93,21.93,0,0,0,1625,489.49l-1.51-.48a23.22,23.22,0,0,0-4.45-.8,21.85,21.85,0,0,0-18,7.5l-27.28-22.07a14.92,14.92,0,1,0-1,1.25l27.27,22a21.89,21.89,0,0,0,3.18,29.68l-79.92,99.09a25.19,25.19,0,0,0-13.55-5.06,16,16,0,0,0-2.77,0l-3.6-49.09a14.42,14.42,0,1,0-2.82.08c.42,0,.84,0,1.23,0l3.63,49.09a25.15,25.15,0,0,0-15,7L1384.15,524.88a26.2,26.2,0,0,0-.24-35.57l77.89-74.26a17.12,17.12,0,1,0,19.12-27.86l35.32-80.07a6.54,6.54,0,0,0,2,.47,7.24,7.24,0,1,0-2.75-.78l-35.32,80.05a18.08,18.08,0,0,0-5.39-1.27,17.11,17.11,0,0,0-14.08,28.31l-77.94,74.29a26.12,26.12,0,0,0-15.81-7.08L1377.4,332.3a17.58,17.58,0,1,0-13.91-27.66L1332,283.52a7.41,7.41,0,0,0,1.08-3.4,7.74,7.74,0,1,0-1.52,4.06l31.5,21.09a17.56,17.56,0,0,0,12.8,26.9L1365.42,481a26.34,26.34,0,0,0-18.55,7l-11.41-11.9a7.58,7.58,0,0,0-5-12.86,7.68,7.68,0,1,0,4.48,13.44l11.41,11.85a26.08,26.08,0,0,0-7.55,15.23l-144.85-9.87a28.53,28.53,0,0,0-14.25-24.9l19.2-35.21a20.83,20.83,0,0,0,24.67-32.69l40.57-38.35a7,7,0,1,0-.56-.56L1223,400.57a20.77,20.77,0,0,0-29.68,0l-24.88-23.5a7.05,7.05,0,1,0-5.86,2.5,7,7,0,0,0,5.31-1.92l24.87,23.49a20.78,20.78,0,0,0,4.74,31.92l-19.22,35.2a28.5,28.5,0,0,0-36.61,9.89l-108.93-65a14.7,14.7,0,0,0,1.83-6.35,15.75,15.75,0,1,0-2.6,7.71l108.89,65a28.29,28.29,0,0,0,1.25,30.34L912.58,686.36a25.2,25.2,0,0,0-11.18-7.58l13.48-44.25a18.45,18.45,0,0,0,3.48.57A19,19,0,0,0,929.79,600l39.48-65.63a6.94,6.94,0,0,0,3,.86,7.47,7.47,0,1,0-3.65-1.29l-39.45,65.65a19.4,19.4,0,0,0-8.16-2.47,19,19,0,0,0-13.83,4.66l-28.58-31.43a9.91,9.91,0,1,0-16.82-7.75Z"/></g></g></g></svg>